
<svg role="img" aria-label="Сторінку не знайдено. Помилка 404 ..." width="847" height="634" viewBox="0 0 847 634" fill="none" xmlns="http://www.w3.org/2000/svg">
<path d="M406.09 599.368L286.633 540.886L313.399 527.791C315.685 526.686 316.817 525.31 316.817 523.679C316.796 522.049 315.664 520.691 313.399 519.568L280.416 503.431C278.13 502.308 275.332 501.764 272.021 501.746C268.688 501.746 265.89 502.308 263.625 503.431L236.88 516.525L205.157 500.986C202.871 499.863 200.073 499.319 196.762 499.301C193.45 499.301 190.631 499.863 188.366 500.986L147.607 520.927C145.321 522.049 144.189 523.426 144.189 525.038C144.189 526.668 145.321 528.026 147.607 529.149L179.33 544.689L81.3199 592.667C79.0342 593.79 77.902 595.148 77.902 596.778C77.902 598.408 79.0342 599.767 81.3199 600.889L114.303 617.027C119.687 619.671 125.497 621.193 131.713 621.591L342.025 633.472C346.169 633.671 349.395 633.563 351.659 633.164C353.945 632.748 356.423 631.897 359.136 630.574L406.112 607.573C408.376 606.45 409.53 605.091 409.53 603.461C409.508 601.849 408.376 600.473 406.09 599.368ZM185.226 590.53L230.642 568.288L287.872 596.307L185.226 590.53ZM585.149 447.14C576.625 442.576 567.503 437.903 557.762 433.139C548.021 428.358 538.686 424.011 529.778 420.045C517.964 414.865 505.083 410.663 491.197 407.403C477.291 404.143 462.828 402.458 447.811 402.295C432.772 402.15 417.369 403.69 401.625 406.932C385.86 410.192 370.202 415.607 354.65 423.232C339.098 430.839 328.011 438.519 321.368 446.234C314.724 453.95 311.562 461.484 311.883 468.837C312.182 476.191 315.664 483.291 322.307 490.082C328.93 496.892 337.56 503.177 348.113 508.973C356.209 513.338 365.117 517.902 374.859 522.683C384.6 527.447 394.149 531.92 403.484 536.086C415.319 541.266 428.157 545.468 442.064 548.728C455.95 551.988 470.412 553.672 485.451 553.835C500.49 553.98 515.892 552.441 531.636 549.199C547.402 545.957 563.06 540.523 578.612 532.898C594.163 525.273 605.272 517.612 611.894 509.897C618.516 502.181 621.678 494.646 621.379 487.293C621.059 479.94 617.598 472.858 610.954 466.048C604.332 459.22 595.723 452.935 585.149 447.14ZM541.591 499.519C539.305 502.471 535.054 505.459 528.838 508.502C522.621 511.545 516.512 513.628 510.488 514.75C504.463 515.873 498.61 516.254 492.906 515.891C487.203 515.529 481.542 514.587 475.945 513.066C470.348 511.545 464.836 509.571 459.453 507.125C441.188 499.211 423.778 490.68 407.18 481.552C402.202 478.908 398.101 476.245 394.896 473.565C391.671 470.884 389.748 468.113 389.15 465.269C388.53 462.426 389.364 459.528 391.649 456.594C393.935 453.642 398.186 450.653 404.403 447.611C410.619 444.568 416.75 442.485 422.753 441.362C428.756 440.239 434.673 439.841 440.483 440.149C446.294 440.456 451.934 441.398 457.445 442.956C462.935 444.532 468.383 446.542 473.766 448.969C492.223 457.192 509.633 465.722 526.039 474.543C530.803 477.277 534.798 479.994 538.023 482.693C541.228 485.391 543.193 488.126 543.941 490.916C544.646 493.705 543.877 496.584 541.591 499.519ZM843.525 385.234L724.067 326.752L750.834 313.657C753.12 312.552 754.252 311.176 754.252 309.545C754.231 307.915 753.099 306.557 750.813 305.434L717.83 289.297C715.544 288.174 712.745 287.63 709.434 287.612C706.102 287.612 703.303 288.174 701.039 289.297L674.293 302.391L642.57 286.852C640.285 285.729 637.486 285.185 634.175 285.167C630.864 285.167 628.044 285.729 625.78 286.852L585.02 306.793C582.735 307.915 581.602 309.292 581.602 310.904C581.602 312.534 582.735 313.892 585.02 315.015L616.743 330.555L518.733 378.533C516.448 379.656 515.315 381.014 515.315 382.644C515.315 384.274 516.448 385.633 518.733 386.755L551.717 402.893C557.121 405.537 562.911 407.059 569.148 407.457L779.46 419.338C783.604 419.538 786.83 419.429 789.094 419.03C791.38 418.614 793.858 417.763 796.571 416.44L843.546 393.439C845.832 392.316 846.964 390.957 846.964 389.327C846.943 387.715 845.811 386.339 843.525 385.234ZM622.639 376.396L668.056 354.173L725.285 382.191L622.639 376.396Z" fill="#263238"/>
<path d="M221.008 375.526C220.687 375.273 220.345 375.055 220.004 374.892C218.637 374.24 189.691 360.059 189.691 360.059V238.222C189.691 235.378 188.9 233.295 187.298 231.991C186.999 231.738 186.679 231.539 186.337 231.376C184.948 230.705 154.251 215.673 153.93 215.51C152.542 214.803 150.961 214.894 149.166 215.763L104.113 237.805C101.529 239.073 99.4779 240.522 98.0039 242.17C96.5085 243.818 94.885 246.499 93.0905 250.23L3.88178 440.71C1.29695 446.397 -0.00616455 452.609 -0.00616455 459.347V500.623C-0.00616455 503.485 0.784261 505.55 2.38643 506.854C2.70686 507.125 3.04863 507.343 3.39043 507.506C4.75761 508.158 35.4552 523.208 35.797 523.371C37.1642 524.042 38.745 523.951 40.4967 523.1L102.02 492.98V500.931C102.02 503.793 102.81 505.857 104.413 507.161C104.712 507.415 105.053 507.632 105.374 507.795C106.741 508.466 137.481 523.516 137.802 523.679C139.169 524.368 140.75 524.277 142.523 523.408L181.594 504.282C183.773 503.213 185.675 501.257 187.255 498.395C188.836 495.534 189.648 492.69 189.648 489.829V450.11L215.304 437.558C217.483 436.49 219.384 434.534 220.986 431.672C222.567 428.829 223.379 425.967 223.379 423.105V381.829C223.4 378.913 222.61 376.848 221.008 375.526Z" fill="#D84343"/>
<path opacity="0.15" d="M130.239 258.018L130.069 258.489C128.68 260.155 127.163 262.691 125.518 266.114L36.3311 456.594C35.1775 459.093 34.3016 461.701 33.7035 464.418L1.0406 448.425C1.68147 445.745 2.51458 443.173 3.62542 440.71L92.8128 250.23C94.6072 246.499 96.2522 243.8 97.7689 242.17C97.7689 242.17 97.7689 242.134 97.8116 242.134L130.239 258.018Z" fill="black"/>
<path opacity="0.3" d="M35.4331 523.154C31.7588 521.361 4.71421 508.121 3.41112 507.506C3.09068 507.343 2.72752 507.107 2.40709 506.836C0.804919 505.55 0.0145264 503.485 0.0145264 500.605V459.365C0.0145264 455.58 0.505839 451.975 1.29624 448.534L33.7242 464.418C32.891 467.841 32.4851 471.464 32.4851 475.249V516.525C32.4851 519.369 33.2755 521.434 34.835 522.719C35.0272 522.882 35.2408 523.027 35.4331 523.154Z" fill="black"/>
<path opacity="0.3" d="M136.007 342.4V414.05L108.685 400.683L136.007 342.4Z" fill="black"/>
<path opacity="0.4" d="M136.007 414.049L92.4283 435.349L108.685 400.683L136.007 414.049Z" fill="black"/>
<path opacity="0.3" d="M136.883 523.027C137.075 523.172 137.246 523.299 137.439 523.426C133.807 521.669 106.677 508.393 105.417 507.777C105.053 507.614 104.733 507.397 104.455 507.125C102.853 505.839 102.063 503.739 102.063 500.895V492.944L134.491 477.06V516.797C134.491 519.641 135.281 521.741 136.883 523.027Z" fill="black"/>
<path opacity="0.15" d="M219.641 374.747C218.359 374.276 216.928 374.403 215.368 375.182L189.691 387.751V360.095C189.691 360.077 216.073 372.972 219.641 374.747Z" fill="black"/>
<path opacity="0.5" d="M186.123 231.265C184.799 230.686 183.282 230.831 181.616 231.646L136.605 253.688C134.021 254.974 132.013 256.404 130.496 258.016L98.0679 242.132C99.5419 240.502 101.593 239.09 104.135 237.804L149.188 215.762C150.982 214.874 152.542 214.82 153.93 215.526C154.251 215.653 183.09 229.78 186.123 231.265Z" fill="white"/>
<path d="M142.544 523.372C140.344 524.44 138.464 524.332 136.883 523.028C135.302 521.724 134.491 519.659 134.491 516.797V477.078L40.518 523.082C38.3391 524.15 36.4379 524.042 34.8571 522.738C33.2549 521.434 32.4645 519.369 32.4645 516.507V475.231C32.4645 468.475 33.7462 462.263 36.3524 456.594L125.561 266.114C127.356 262.383 129 259.702 130.474 258.054C131.97 256.424 133.999 254.957 136.605 253.689L181.658 231.629C183.837 230.561 185.739 230.669 187.341 231.973C188.922 233.277 189.733 235.36 189.733 238.204V387.734L215.389 375.182C217.568 374.114 219.47 374.222 221.072 375.526C222.653 376.83 223.464 378.913 223.464 381.757V423.033C223.464 425.895 222.674 428.738 221.072 431.6C219.47 434.462 217.59 436.418 215.389 437.486L189.733 450.038V489.756C189.733 492.618 188.943 495.462 187.341 498.323C185.739 501.185 183.859 503.141 181.658 504.21L142.544 523.372ZM135.986 414.032V342.382L92.4283 435.349L135.986 414.032Z" fill="#D84343"/>
<path opacity="0.3" d="M142.544 523.372C140.344 524.44 138.464 524.332 136.883 523.028C135.302 521.724 134.491 519.659 134.491 516.797V477.078L40.518 523.082C38.3391 524.15 36.4379 524.042 34.8571 522.738C33.2549 521.434 32.4645 519.369 32.4645 516.507V475.231C32.4645 468.475 33.7462 462.263 36.3524 456.594L125.561 266.114C127.356 262.383 129 259.702 130.474 258.054C131.97 256.424 133.999 254.957 136.605 253.689L181.658 231.629C183.837 230.561 185.739 230.669 187.341 231.973C188.922 233.277 189.733 235.36 189.733 238.204V387.734L215.389 375.182C217.568 374.114 219.47 374.222 221.072 375.526C222.653 376.83 223.464 378.913 223.464 381.757V423.033C223.464 425.895 222.674 428.738 221.072 431.6C219.47 434.462 217.59 436.418 215.389 437.486L189.733 450.038V489.756C189.733 492.618 188.943 495.462 187.341 498.323C185.739 501.185 183.859 503.141 181.658 504.21L142.544 523.372ZM135.986 414.032V342.382L92.4283 435.349L135.986 414.032Z" fill="white"/>
<path d="M430.144 211.633C429.546 197.904 427.495 185.48 424.035 174.323C420.553 163.184 415.276 154.527 408.226 148.387C405.748 146.232 403.035 144.421 400.087 142.954C394.683 140.273 370.543 128.5 367.595 127.052C362.191 124.389 356.017 122.904 349.096 122.596C338.351 122.143 325.512 125.566 310.601 132.865C295.69 140.164 282.851 149.311 272.106 160.268C261.361 171.244 252.474 183.252 245.403 196.31C238.354 209.369 233.056 223.188 229.595 237.732C226.113 252.294 224.062 266.729 223.464 281.037C223.058 292.393 222.866 304.183 222.866 316.372C222.866 328.562 223.058 339.9 223.464 350.35C224.062 364.079 226.092 376.521 229.595 387.66C233.056 398.817 238.354 407.456 245.403 413.614C247.881 415.769 250.573 417.562 253.478 419.029C258.904 421.728 283.343 433.682 286.483 435.185C291.781 437.72 297.805 439.133 304.534 439.405C315.279 439.858 328.097 436.435 343.029 429.136C357.94 421.837 370.778 412.69 381.524 401.733C392.247 390.775 401.156 378.749 408.226 365.69C415.276 352.65 420.553 338.831 424.035 324.269C427.517 309.726 429.546 295.272 430.144 280.964C430.529 270.133 430.742 258.614 430.742 246.407C430.742 234.2 430.529 222.609 430.144 211.633ZM312.246 350.042C311.626 346.166 311.242 341.928 311.092 337.291C310.088 315.72 310.088 293.914 311.092 271.872C311.285 265.298 311.99 258.977 313.186 252.946C314.382 246.914 316.177 241.3 318.548 236.102C320.94 230.922 324.123 226.177 328.097 221.884C331.621 218.081 335.979 214.857 341.064 212.14C341.726 215.98 342.196 220.182 342.495 224.746C343.285 245.9 343.285 267.725 342.495 290.165C342.281 296.758 341.64 303.042 340.551 309.019C339.461 314.996 337.667 320.611 335.189 325.863C332.711 331.115 329.464 335.861 325.49 340.153C321.902 343.993 317.458 347.289 312.246 350.042Z" fill="#D84343"/>
<path opacity="0.15" d="M285.607 434.751C280.224 432.143 258.52 421.548 253.457 419.049C250.552 417.6 247.86 415.771 245.382 413.633C238.311 407.475 233.035 398.836 229.574 387.697C226.092 376.559 224.062 364.098 223.464 350.387C223.058 339.919 222.866 328.617 222.866 316.428C222.866 304.203 223.058 292.412 223.464 281.074C224.062 266.748 226.092 252.331 229.574 237.769C232.009 227.5 235.363 217.647 239.636 208.139L272.021 224.059C267.791 233.531 264.48 243.42 262.045 253.653C258.52 268.215 256.49 282.632 255.892 296.958C255.486 308.296 255.294 320.087 255.294 332.312C255.294 344.501 255.486 355.821 255.892 366.271C256.49 379.982 258.52 392.443 262.045 403.581C265.484 414.72 270.782 423.396 277.831 429.517C280.181 431.564 282.83 433.321 285.607 434.751Z" fill="black"/>
<path opacity="0.5" d="M398.849 142.375C393.743 140.075 387.954 138.789 381.524 138.481C370.778 138.046 357.961 141.469 343.029 148.75C328.139 156.067 315.322 165.214 304.555 176.171C293.81 187.147 284.902 199.137 277.831 212.195C276.742 214.151 275.759 216.162 274.755 218.19C273.837 220.128 272.961 222.048 272.085 224.022H272.042L239.657 208.102C240.426 206.382 241.216 204.643 242.05 202.959C243.139 200.731 244.207 198.521 245.403 196.312C252.474 183.235 261.382 171.263 272.085 160.251C282.83 149.312 295.69 140.165 310.58 132.848C325.469 125.531 338.329 122.144 349.074 122.579C355.974 122.887 362.169 124.336 367.574 127.016C370.373 128.429 391.692 138.825 398.849 142.375Z" fill="white"/>
<path opacity="0.3" d="M374.965 306.032C374.773 312.606 374.09 318.909 373 324.886C371.911 330.881 370.116 336.459 367.638 341.712C366.549 343.976 365.31 346.185 363.921 348.286L331.493 332.402C332.86 330.302 334.099 328.11 335.168 325.828C337.646 320.576 339.44 314.997 340.551 309.002C341.64 303.007 342.26 296.704 342.473 290.148C343.264 267.69 343.264 245.883 342.473 224.729C342.196 220.165 341.726 215.963 341.085 212.105C341.085 212.105 341.918 211.598 343.008 211.054C348.968 208.048 353.945 206.889 357.94 207.269C361.892 207.668 365.096 209.298 367.489 212.141C369.881 214.985 371.612 218.879 372.722 223.787C373.812 228.695 374.56 234.328 374.965 240.613C375.713 261.767 375.713 283.573 374.965 306.032Z" fill="black"/>
<path opacity="0.4" d="M363.943 348.286C362.191 351.021 360.183 353.593 357.961 356.002C353.966 360.294 349.01 363.899 343.029 366.796C337.069 369.749 332.134 370.998 328.139 370.582C324.145 370.201 320.919 368.626 318.441 365.8C315.963 362.993 314.169 359.135 313.079 354.227C312.759 352.869 312.524 351.456 312.289 349.989C317.48 347.254 321.966 343.958 325.512 340.1C327.755 337.691 329.784 335.119 331.536 332.384L363.943 348.286Z" fill="black"/>
<path d="M343.029 148.75C357.94 141.451 370.778 138.028 381.524 138.481C392.269 138.952 401.156 142.248 408.226 148.388C415.276 154.546 420.553 163.185 424.035 174.324C427.517 185.481 429.546 197.905 430.144 211.634C430.529 222.61 430.742 234.201 430.742 246.39C430.742 258.597 430.529 270.117 430.144 280.947C429.546 295.255 427.495 309.69 424.035 324.252C420.553 338.814 415.276 352.633 408.226 365.674C401.177 378.732 392.269 390.758 381.524 401.716C370.778 412.673 357.94 421.82 343.029 429.119C328.118 436.418 315.279 439.841 304.534 439.388C293.789 438.935 284.902 435.639 277.831 429.481C270.782 423.341 265.484 414.684 262.023 403.527C258.541 392.388 256.512 379.946 255.892 366.217C255.486 355.766 255.294 344.447 255.294 332.239C255.294 320.032 255.486 308.26 255.892 296.904C256.49 282.595 258.52 268.16 262.023 253.599C265.484 239.055 270.782 225.236 277.831 212.177C284.881 199.119 293.789 187.111 304.534 176.135C315.279 165.196 328.118 156.049 343.029 148.75ZM374.944 306.032C375.735 283.573 375.735 261.767 374.944 240.613C374.538 234.328 373.791 228.713 372.701 223.787C371.612 218.879 369.86 214.985 367.467 212.123C365.075 209.279 361.892 207.649 357.918 207.251C353.945 206.871 348.968 208.138 343.008 211.054C337.047 213.97 332.07 217.575 328.097 221.867C324.123 226.16 320.94 230.887 318.548 236.085C316.155 241.283 314.382 246.897 313.186 252.929C311.99 258.96 311.285 265.281 311.092 271.855C310.088 293.897 310.088 315.703 311.092 337.274C311.285 343.668 311.947 349.319 313.036 354.245C314.126 359.153 315.92 363.029 318.398 365.818C320.876 368.626 324.123 370.238 328.097 370.618C332.07 371.016 337.047 369.749 343.008 366.815C348.968 363.899 353.945 360.294 357.918 356.002C361.892 351.728 365.139 346.964 367.617 341.712C370.095 336.478 371.889 330.863 372.979 324.868C374.09 318.909 374.752 312.625 374.944 306.032Z" fill="#D84343"/>
<path opacity="0.3" d="M343.029 148.75C357.94 141.451 370.778 138.028 381.524 138.481C392.269 138.952 401.156 142.248 408.226 148.388C415.276 154.546 420.553 163.185 424.035 174.324C427.517 185.481 429.546 197.905 430.144 211.634C430.529 222.61 430.742 234.201 430.742 246.39C430.742 258.597 430.529 270.117 430.144 280.947C429.546 295.255 427.495 309.69 424.035 324.252C420.553 338.814 415.276 352.633 408.226 365.674C401.177 378.732 392.269 390.758 381.524 401.716C370.778 412.673 357.94 421.82 343.029 429.119C328.118 436.418 315.279 439.841 304.534 439.388C293.789 438.935 284.902 435.639 277.831 429.481C270.782 423.341 265.484 414.684 262.023 403.527C258.541 392.388 256.512 379.946 255.892 366.217C255.486 355.766 255.294 344.447 255.294 332.239C255.294 320.032 255.486 308.26 255.892 296.904C256.49 282.595 258.52 268.16 262.023 253.599C265.484 239.055 270.782 225.236 277.831 212.177C284.881 199.119 293.789 187.111 304.534 176.135C315.279 165.196 328.118 156.049 343.029 148.75ZM374.944 306.032C375.735 283.573 375.735 261.767 374.944 240.613C374.538 234.328 373.791 228.713 372.701 223.787C371.612 218.879 369.86 214.985 367.467 212.123C365.075 209.279 361.892 207.649 357.918 207.251C353.945 206.871 348.968 208.138 343.008 211.054C337.047 213.97 332.07 217.575 328.097 221.867C324.123 226.16 320.94 230.887 318.548 236.085C316.155 241.283 314.382 246.897 313.186 252.929C311.99 258.96 311.285 265.281 311.092 271.855C310.088 293.897 310.088 315.703 311.092 337.274C311.285 343.668 311.947 349.319 313.036 354.245C314.126 359.153 315.92 363.029 318.398 365.818C320.876 368.626 324.123 370.238 328.097 370.618C332.07 371.016 337.047 369.749 343.008 366.815C348.968 363.899 353.945 360.294 357.918 356.002C361.892 351.728 365.139 346.964 367.617 341.712C370.095 336.478 371.889 330.863 372.979 324.868C374.09 318.909 374.752 312.625 374.944 306.032Z" fill="white"/>
<path d="M659.062 161.121C658.742 160.867 658.4 160.65 658.058 160.487C656.691 159.835 627.745 145.653 627.745 145.653V23.7981C627.745 20.9546 626.955 18.8718 625.352 17.5677C625.053 17.3142 624.733 17.1149 624.391 16.9519C623.024 16.2818 592.305 1.24915 592.006 1.08614C590.617 0.379787 589.037 0.470351 587.242 1.33971L542.189 23.3997C539.604 24.6675 537.575 26.1164 536.08 27.7646C534.584 29.4128 532.961 32.0933 531.166 35.8243L441.936 226.286C439.351 231.973 438.048 238.186 438.048 244.923V286.2C438.048 289.061 438.839 291.126 440.441 292.43C440.761 292.702 441.103 292.919 441.445 293.082C442.812 293.734 473.51 308.785 473.851 308.948C475.219 309.618 476.799 309.527 478.551 308.676L540.074 278.556V286.507C540.074 289.369 540.865 291.434 542.467 292.738C542.787 292.991 543.108 293.209 543.428 293.372C544.795 294.042 575.536 309.093 575.856 309.256C577.223 309.944 578.804 309.853 580.577 308.984L619.649 289.858C621.828 288.79 623.729 286.833 625.331 283.972C626.912 281.11 627.724 278.267 627.724 275.405V235.686L653.38 223.135C655.559 222.066 657.46 220.11 659.062 217.249C660.643 214.405 661.455 211.543 661.455 208.682V167.405C661.433 164.489 660.643 162.425 659.062 161.121Z" fill="#D84343"/>
<path opacity="0.15" d="M568.294 43.5944L568.123 44.0653C566.713 45.7315 565.218 48.2672 563.573 51.6903L474.385 242.17C473.232 244.67 472.356 247.278 471.758 249.995L439.095 234.002C439.736 231.322 440.569 228.75 441.68 226.286L530.867 35.8064C532.662 32.0754 534.306 29.3767 535.823 27.7467C535.823 27.7467 535.823 27.7104 535.866 27.7104L568.294 43.5944Z" fill="black"/>
<path opacity="0.3" d="M473.467 308.731C469.793 306.938 442.748 293.698 441.445 293.082C441.124 292.919 440.761 292.684 440.441 292.412C438.839 291.126 438.048 289.061 438.048 286.182V244.941C438.048 241.156 438.518 237.552 439.33 234.111L471.758 249.995C470.925 253.418 470.519 257.04 470.519 260.825V302.102C470.519 304.945 471.309 307.01 472.869 308.296C473.082 308.477 473.275 308.604 473.467 308.731Z" fill="black"/>
<path opacity="0.3" d="M574.04 127.977V199.626L546.718 186.26L574.04 127.977Z" fill="black"/>
<path opacity="0.4" d="M574.04 199.626L530.461 220.925L546.718 186.26L574.04 199.626Z" fill="black"/>
<path opacity="0.3" d="M574.916 308.604C575.108 308.749 575.279 308.875 575.472 309.002C571.84 307.245 544.71 293.97 543.45 293.354C543.086 293.191 542.766 292.973 542.488 292.702C540.886 291.416 540.096 289.315 540.096 286.471V278.52L572.524 262.636V302.355C572.524 305.217 573.314 307.318 574.916 308.604Z" fill="black"/>
<path opacity="0.15" d="M657.674 160.324C656.392 159.853 654.961 159.98 653.401 160.759L627.724 173.328V145.672C627.724 145.654 654.127 158.567 657.674 160.324Z" fill="black"/>
<path opacity="0.5" d="M624.178 16.8426C622.853 16.263 621.336 16.4079 619.67 17.2229L574.66 39.2648C572.054 40.5507 570.067 41.9815 568.55 43.5935L536.122 27.7096C537.596 26.0795 539.626 24.6668 542.189 23.3809L587.242 1.33901C589.037 0.451539 590.596 0.397202 591.985 1.10356C592.284 1.23034 621.123 15.3574 624.178 16.8426Z" fill="white"/>
<path d="M580.599 308.948C578.398 310.016 576.518 309.908 574.938 308.604C573.357 307.3 572.545 305.235 572.545 302.373V262.654L478.572 308.658C476.393 309.727 474.492 309.618 472.911 308.314C471.309 307.01 470.519 304.945 470.519 302.084V260.807C470.519 254.051 471.801 247.839 474.407 242.17L563.616 51.6901C565.41 47.9591 567.055 45.2786 568.529 43.6304C570.024 42.0004 572.054 40.5333 574.638 39.2655L619.691 17.2055C621.87 16.1369 623.772 16.2456 625.374 17.5496C626.955 18.8537 627.766 20.9365 627.766 23.78V173.31L653.422 160.758C655.601 159.69 657.503 159.798 659.105 161.103C660.686 162.407 661.476 164.489 661.476 167.333V208.609C661.476 211.471 660.686 214.315 659.105 217.176C657.503 220.038 655.623 221.994 653.422 223.062L627.766 235.614V275.333C627.766 278.194 626.976 281.038 625.374 283.899C623.772 286.761 621.892 288.717 619.691 289.786L580.599 308.948ZM574.019 199.626V127.976L530.461 220.943L574.019 199.626Z" fill="#D84343"/>
<path opacity="0.3" d="M580.599 308.948C578.398 310.016 576.518 309.908 574.938 308.604C573.357 307.3 572.545 305.235 572.545 302.373V262.654L478.572 308.658C476.393 309.727 474.492 309.618 472.911 308.314C471.309 307.01 470.519 304.945 470.519 302.084V260.807C470.519 254.051 471.801 247.839 474.407 242.17L563.616 51.6901C565.41 47.9591 567.055 45.2786 568.529 43.6304C570.024 42.0004 572.054 40.5333 574.638 39.2655L619.691 17.2055C621.87 16.1369 623.772 16.2456 625.374 17.5496C626.955 18.8537 627.766 20.9365 627.766 23.78V173.31L653.422 160.758C655.601 159.69 657.503 159.798 659.105 161.103C660.686 162.407 661.476 164.489 661.476 167.333V208.609C661.476 211.471 660.686 214.315 659.105 217.176C657.503 220.038 655.623 221.994 653.422 223.062L627.766 235.614V275.333C627.766 278.194 626.976 281.038 625.374 283.899C623.772 286.761 621.892 288.717 619.691 289.786L580.599 308.948ZM574.019 199.626V127.976L530.461 220.943L574.019 199.626Z" fill="white"/>
</svg>
